<mxfile host="app.diagrams.net" modified="2023-10-19T14:14:24.094Z" agent="Mozilla/5.0 (Windows NT 10.0; Win64; x64) AppleWebKit/537.36 (KHTML, like Gecko) Chrome/118.0.0.0 Safari/537.36 Edg/118.0.2088.46" version="21.6.3" etag="8vtTyDmz1XxazdY0SRiR" type="github">
  <diagram name="第 1 页" id="4aE0on4254j4wPBidS7U">
    <mxGraphModel>
      <root>
        <mxCell id="0" />
        <mxCell id="1" parent="0" />
      </root>
    </mxGraphModel>
  </diagram>
</mxfile>
